<?xml version="1.0" encoding="utf-8"?>
<!-- Generator: Adobe Illustrator 22.1.0, SVG Export Plug-In . SVG Version: 6.00 Build 0)  -->
<svg version="1.1" xmlns="http://www.w3.org/2000/svg" xmlns:xlink="http://www.w3.org/1999/xlink" x="0px" y="0px"
	 viewBox="0 0 1654 1080" style="enable-background:new 0 0 1654 1080;" xml:space="preserve">
<style type="text/css">
	.st0{display:none;}
	.st1{display:inline;}
	.st2{fill:none;stroke:#000000;stroke-miterlimit:10;}
	.st3{display:inline;fill:none;stroke:#000000;stroke-width:0.5;stroke-miterlimit:10;}
	.st4{display:inline;fill:none;stroke:#000000;stroke-width:0.3536;stroke-miterlimit:10;}
	.st5{display:inline;fill:none;stroke:#000000;stroke-width:0.25;stroke-miterlimit:10;}
	.st6{clip-path:url(#SVGID_2_);}
	.st7{fill:#FF0000;}
</style>
<g id="Layer_2" class="st0">
	<g class="st1">
		<line class="st2" x1="-217" y1="0" x2="1703" y2="0"/>
		<line class="st2" x1="-217" y1="24" x2="1703" y2="24"/>
		<line class="st2" x1="-217" y1="48" x2="1703" y2="48"/>
		<line class="st2" x1="-217" y1="72" x2="1703" y2="72"/>
		<line class="st2" x1="-217" y1="96" x2="1703" y2="96"/>
		<line class="st2" x1="-217" y1="120" x2="1703" y2="120"/>
		<line class="st2" x1="-217" y1="144" x2="1703" y2="144"/>
		<line class="st2" x1="-217" y1="168" x2="1703" y2="168"/>
		<line class="st2" x1="-217" y1="192" x2="1703" y2="192"/>
		<line class="st2" x1="-217" y1="216" x2="1703" y2="216"/>
		<line class="st2" x1="-217" y1="240" x2="1703" y2="240"/>
		<line class="st2" x1="-217" y1="264" x2="1703" y2="264"/>
		<line class="st2" x1="-217" y1="288" x2="1703" y2="288"/>
		<line class="st2" x1="-217" y1="312" x2="1703" y2="312"/>
		<line class="st2" x1="-217" y1="336" x2="1703" y2="336"/>
		<line class="st2" x1="-217" y1="360" x2="1703" y2="360"/>
		<line class="st2" x1="-217" y1="384" x2="1703" y2="384"/>
		<line class="st2" x1="-217" y1="408" x2="1703" y2="408"/>
		<line class="st2" x1="-217" y1="432" x2="1703" y2="432"/>
		<line class="st2" x1="-217" y1="456" x2="1703" y2="456"/>
		<line class="st2" x1="-217" y1="480" x2="1703" y2="480"/>
		<line class="st2" x1="-217" y1="504" x2="1703" y2="504"/>
		<line class="st2" x1="-217" y1="528" x2="1703" y2="528"/>
		<line class="st2" x1="-217" y1="552" x2="1703" y2="552"/>
		<line class="st2" x1="-217" y1="576" x2="1703" y2="576"/>
		<line class="st2" x1="-217" y1="600" x2="1703" y2="600"/>
		<line class="st2" x1="-217" y1="624" x2="1703" y2="624"/>
		<line class="st2" x1="-217" y1="648" x2="1703" y2="648"/>
		<line class="st2" x1="-217" y1="672" x2="1703" y2="672"/>
		<line class="st2" x1="-217" y1="696" x2="1703" y2="696"/>
		<line class="st2" x1="-217" y1="720" x2="1703" y2="720"/>
		<line class="st2" x1="-217" y1="744" x2="1703" y2="744"/>
		<line class="st2" x1="-217" y1="768" x2="1703" y2="768"/>
		<line class="st2" x1="-217" y1="792" x2="1703" y2="792"/>
		<line class="st2" x1="-217" y1="816" x2="1703" y2="816"/>
		<line class="st2" x1="-217" y1="840" x2="1703" y2="840"/>
		<line class="st2" x1="-217" y1="864" x2="1703" y2="864"/>
		<line class="st2" x1="-217" y1="888" x2="1703" y2="888"/>
		<line class="st2" x1="-217" y1="912" x2="1703" y2="912"/>
		<line class="st2" x1="-217" y1="936" x2="1703" y2="936"/>
		<line class="st2" x1="-217" y1="960" x2="1703" y2="960"/>
		<line class="st2" x1="-217" y1="984" x2="1703" y2="984"/>
		<line class="st2" x1="-217" y1="1008" x2="1703" y2="1008"/>
		<line class="st2" x1="-217" y1="1032" x2="1703" y2="1032"/>
		<line class="st2" x1="-217" y1="1056" x2="1703" y2="1056"/>
		<line class="st2" x1="1703" y1="1080" x2="-217" y2="1080"/>
	</g>
	<g class="st1">
		<line x1="1703" y1="0" x2="1703" y2="1080"/>
		<line x1="1663" y1="0" x2="1663" y2="1080"/>
		<line x1="1623" y1="0" x2="1623" y2="1080"/>
		<line x1="1583" y1="0" x2="1583" y2="1080"/>
		<line x1="1543" y1="0" x2="1543" y2="1080"/>
		<line x1="1503" y1="0" x2="1503" y2="1080"/>
		<line x1="1463" y1="0" x2="1463" y2="1080"/>
		<line x1="1423" y1="0" x2="1423" y2="1080"/>
		<line x1="1383" y1="0" x2="1383" y2="1080"/>
		<line x1="1343" y1="0" x2="1343" y2="1080"/>
		<line x1="1303" y1="0" x2="1303" y2="1080"/>
		<line x1="1263" y1="0" x2="1263" y2="1080"/>
		<line x1="1223" y1="0" x2="1223" y2="1080"/>
		<line x1="1183" y1="0" x2="1183" y2="1080"/>
		<line x1="1143" y1="0" x2="1143" y2="1080"/>
		<line x1="1103" y1="0" x2="1103" y2="1080"/>
		<line x1="1063" y1="0" x2="1063" y2="1080"/>
		<line x1="1023" y1="0" x2="1023" y2="1080"/>
		<line x1="983" y1="0" x2="983" y2="1080"/>
		<line x1="943" y1="0" x2="943" y2="1080"/>
		<line x1="903" y1="0" x2="903" y2="1080"/>
		<line x1="863" y1="0" x2="863" y2="1080"/>
		<line x1="823" y1="0" x2="823" y2="1080"/>
		<line x1="783" y1="0" x2="783" y2="1080"/>
		<line x1="743" y1="0" x2="743" y2="1080"/>
		<line x1="703" y1="0" x2="703" y2="1080"/>
		<line x1="663" y1="0" x2="663" y2="1080"/>
		<line x1="623" y1="0" x2="623" y2="1080"/>
		<line x1="583" y1="0" x2="583" y2="1080"/>
		<line x1="543" y1="0" x2="543" y2="1080"/>
		<line x1="503" y1="0" x2="503" y2="1080"/>
		<line x1="463" y1="0" x2="463" y2="1080"/>
		<line x1="423" y1="0" x2="423" y2="1080"/>
		<line x1="383" y1="0" x2="383" y2="1080"/>
		<line x1="343" y1="0" x2="343" y2="1080"/>
		<line x1="303" y1="0" x2="303" y2="1080"/>
		<line x1="263" y1="0" x2="263" y2="1080"/>
		<line x1="223" y1="0" x2="223" y2="1080"/>
		<line x1="183" y1="0" x2="183" y2="1080"/>
		<line x1="143" y1="0" x2="143" y2="1080"/>
		<line x1="103" y1="0" x2="103" y2="1080"/>
		<line x1="63" y1="0" x2="63" y2="1080"/>
		<line x1="23" y1="0" x2="23" y2="1080"/>
		<line x1="-17" y1="0" x2="-17" y2="1080"/>
		<line x1="-57" y1="0" x2="-57" y2="1080"/>
		<line x1="-97" y1="0" x2="-97" y2="1080"/>
		<line x1="-137" y1="0" x2="-137" y2="1080"/>
		<line x1="-177" y1="0" x2="-177" y2="1080"/>
		<line x1="-217" y1="1080" x2="-217" y2="0"/>
	</g>
	<line class="st1" x1="-217" y1="0" x2="1703" y2="1080"/>
	<line class="st3" x1="-217" y1="1080" x2="1703" y2="0"/>
	<line class="st1" x1="-217" y1="0" x2="743" y2="1080"/>
	<line class="st4" x1="-217" y1="1080" x2="743" y2="0"/>
	<line class="st1" x1="743" y1="0" x2="1703" y2="1080"/>
	<line class="st4" x1="743" y1="1080" x2="1703" y2="0"/>
	<line class="st1" x1="743" y1="0" x2="1223" y2="1080"/>
	<line class="st5" x1="743" y1="1080" x2="1223" y2="0"/>
	<line class="st1" x1="263" y1="0" x2="743" y2="1080"/>
	<line class="st5" x1="263" y1="1080" x2="743" y2="0"/>
</g>
<g id="Layer_1">
	<g>
		<defs>
			<rect id="SVGID_1_" width="1654" height="1080"/>
		</defs>
		<clipPath id="SVGID_2_">
			<use xlink:href="#SVGID_1_"  style="overflow:visible;"/>
		</clipPath>
		<g class="st6">
			<path class="st7" d="M1684.3,208.9c6.1-9.1,12.4-22.4,18.7-38.3V0h-65.7c-11.7,76.2-42.5,162-42.5,162c-1.4,4.9-2.6,8.3-7.1,9.4
				c-3,0.8-2.2-8.9-2.2-8.9l-2.9-108.9c-0.3-48.4-33.1-45.3-33.1-45.3c-39.3,2.9-93.6,37.5-93.6,37.5c-29.6,18.1-8.1,48.7-8.1,48.7
				c0.8,4.7,1.6,9.4,2.3,14c-84-36.2-204.1,81.2-204.1,81.2c-26.1,28.8-13.6,55.8-3.5,69.7c-2.8,21.8-7.2,42.9-12.6,63
				c0.4-15.9-1.3-31.4-5.2-46.1c-17.7-66.8-64.1-91.1-109.9-74.8v-29.4c-7.7-1-14.4-1.9-22.1-1.9c-35.5,0-73,14.4-106.6,44.2
				c-18.2,15.4-35.5,32.6-51.8,51.8c35.5-77.8,35.5-77.8,84.5-158.4c0,0,22.1-38.4,22.1-69.1c0-17.3-6.7-32.6-26.9-38.4H852.6
				c-16.3,5.8-36.5,21.5-53.8,70.1l-93.1,263c0,0-5.8,16.3-11.5,16.3h-1c-5.8-1-14-3.9-12.5-17.3l41.3-216c0,0,1.9-11.9,1.9-14.4
				c0.3-11.5-3.8-25.9-25-29.8l-49.9-5.8c0,0-23-4.8-43.2,25.9L473.4,292.1c0,0-12.5,20.2-16.3,19.2c-3.8-1.9-3.8-7.7,2.9-24
				c0,0,97.9-223.7,117.1-287H423.5V161l-48.3,19.2c0,0-46.5,9.9-45.1,101.7l-9,304.2c0,0,0.1,26-6.8,27.2
				c-5.8,1.1-13.7,1.3-17.5-23.8c0,0-18.6-143.5-22.4-233.6c0,0,0.6-43.3-32.4-38.4l-46.6,9.8c0,0-25.2,3.6-31.7,42l-61.2,256.3
				c0,0-3.4,26.3-9.8,24.9c-8.2-1.8-3-13.1-4-26.4c0,0,28.3-313.4,22.6-356c0,0,4.2-56.9-54.1-49.3l-57.4,7.8V359
				c-2-0.3-4.2-0.3-6.6,0.1l-35.6,7.5c0,0-19.3,2.7-24.3,32.1l-46.8,196c0,0-2.6,20.1-7.5,19.1c-6.3-1.3-2.3-10.1-3.1-20.2
				c0,0,21.6-239.7,17.3-272.2c0,0,3.2-43.5-41.4-37.7l-55.4,7.6c0,0-5.7-0.1-12.5,2.9v590.6l68.4,7.7c0,0,31.8,3.9,42.9-31.8
				l39.5-195c0,0,9.7-24.9,13.8,0.3l26.3,219.9c0,0-1,30.6,24.9,32v90.5l58,6.5c0,0,41.6,5.1,56.1-41.5l51.7-255
				c0,0,12.7-32.5,18,0.5l34.4,287.6c0,0-1.5,46.6,41.1,41.6c0,0,90.3-3.9,154.9-37.5c0.2,7.5,0.4,15,0.5,22.5c0,0-2.6,29.7,9,46.9
				h96.4c5.1-4.5,9.8-11.4,11.6-22.3l10.8-155.1c0,0,4.9-20.4,10.6-1.7l42.2,165c0,0,0.8,7.9,5.3,14.1h42.6
				c9.8-3.2,22.2-7.7,34.8-13.6l0,13.6h80.1l6.9-83.9c0,0,3.6-12.6,7.8-1l25.7,84.9H897c6.1-4.6,15.4-14.4,12.1-30.8
				c-1.7-8.3-3.7-25.9-5.6-48.1c0.1,0.1,0.2,0.3,0.2,0.4c22.7,40.4,74.3,51.8,103.7,6.4c4.5-7,8.2-14.7,11-22.9
				c-0.2,19.8-1.1,35-0.7,43.4c1.1,26,59.1-7.3,59.1-7.3c14-7-2-100.3-2-100.3c-0.8-12.6,7.4-2.9,7.4-2.9c14.4,15.2,41.1,37,41.1,37
				c13.9,5.3,21.6-9.4,21.6-9.4c8.1-13.8,14.7-40.7,14.7-40.7c5-16.5-6.6-15.5-11.7-17.6c-5.1-2.1-34.3-14.2-34.3-14.2
				c-7.3-1.7,1.3-21,1.3-21c8.4-21.5,10.8-80.3,11.4-114.5c0-0.1,0-0.1,0-0.2c0-0.2,0-0.3,0-0.5c33.1,66.3,41.4,115.2,48.7,140.8
				c10.4,36.1,63.7-16.5,63.7-16.5c17.2-14.5-16.8-103.1-16.8-103.1c-5.3-17.4,9.3-6.5,9.3-6.5c6.7,4.3,17.1,9.1,28.8,13.7v91.8
				v187.3c22.4,2.4,55-8.6,55-8.6c25.5-6.5,34.6-116.8,34.6-116.8c3.2-21,13.1-2.1,13.1-2.1c18.2,30,89.2,93,89.2,93
				c4.3,2.8,8.5,4.1,12.5,4.4v65.3h53.9c15.9-38.9,26.7-91.4,26.7-91.4c6.7-24.1,15.6-0.6,15.6-0.6c10.5,23.3,42.8,64.1,66.1,92
				h76.3v-116c-9-8-16-14.2-16-14.2c-41.1-41.5-22.2-64.2-22.2-64.2c11.4-13.4,24.8-37.8,38.2-66.3V647h-51.1
				c-13.9,77.6-66.9,183.3-66.9,183.3c-1.9,4.5-3.4,7.6-7.8,8.2c-3,0.4-1.1-8.7-1.1-8.7l9.6-103.8c5.3-46.1-26.2-46.8-26.2-46.8
				c-37.7-1.7-93.3,25-93.3,25c-0.3,0.1-0.5,0.3-0.8,0.4V647h-63.1c-9,62.7-35,135.3-35,135.3c-1.2,4-2.1,6.7-5.7,7.6
				c-2.4,0.6-1.8-7.2-1.8-7.2l-2.4-88.2c-0.2-39.2-26.8-36.7-26.8-36.7c-16.4,1.2-36,9.2-51.2,16.7c-26.6-10.3-24.6-26.4-24.6-26.4
				c3.3-24-4.6-74.8-13.3-119.2l-0.4,0c19.7-37.9,39.3-95.1,39.3-95.1c7.7-16.4,11.3,1.4,11.3,1.4c7.7,29.1,26.4,75.1,26.4,75.1
				c14,16.2,33.8,3,33.8,3c19.8-11.9,46.6-41.3,46.6-41.3c17.7-17.5,2.3-24.1-2.7-30.3c-5-6.2-33.5-41.7-33.5-41.7
				c-8.1-7.3,16.2-25.7,16.2-25.7c22.4-18.7,58.7-77.3,83.8-120.2c-0.1,100.3-18.8,165.4-25,201.9c-9.2,53.2,92.9,18.6,92.9,18.6
				c31.4-8,42.8-144.2,42.8-144.2c4-25.9,16.1-2.5,16.1-2.5c22.4,37.1,110.1,114.8,110.1,114.8c1.3,0.8,2.6,1.6,3.8,2.2V261.8
				C1670.7,229.9,1684.3,208.9,1684.3,208.9z M621.6,825c-3.3,1.3-7.9,2.2-12.1-12.1c0,0-21.9-82.2-31-134.6c0,0-3-25.5-21.9-19.1
				l-26.6,10.8c0,0-14.5,4.8-15.4,28L498.4,855c0,0,0,15.8-3.8,15.7c-5-0.1-2.8-7.4-4.4-15.1c0,0-7.4-186.9-14-211.2
				c0,0-1.9-33.8-35.5-23.1l-17.1,5.5v-85.3l89.2-148.6c5.8-9.6,10.6-14.4,14.4-14.4c2.9,0,5.9,2,4.8,9.6l-38.4,235.2h111.2
				c0.2,1.8,0.4,3.7,0.7,5.6l18,179.4C623.5,808.3,625.6,823.6,621.6,825z M958.2,509.1c1.9-42.2,28.8-91.2,62.4-110.4
				c9.6-5.8,18.2-8.6,25.9-8.6c21.1,0,37.4,18.2,38.4,49.9c1.9,44.2-28.8,96-65.3,114.2c-8.6,4.8-17.3,6.7-25,6.7
				C971.6,560.9,956.3,540.8,958.2,509.1z M970.2,964.6c-8,12.3-20,10.7-27.1-2.7c-7.1-13.4-7.7-33.4-1.1-45.6
				c6.6-12.2,19.1-12.1,27.6,1.2C978.1,930.8,978.3,952.3,970.2,964.6z M1067.9,839.1c-0.2,2.4-0.4,4.2-2.4,5.2
				c-1.3,0.7-2-3.9-2-3.9l-12.5-51c-1-4.5-2.4-7.9-4-10.5l0,0c16.2-51.3,24-24.1,24-24.1s0,0,0,0
				C1074,792.6,1067.9,839.1,1067.9,839.1z M972.5,783.5c-6.3,26.3,10.3,38.6,21,43.6c5.3,13.6,9.5,27.3,12.8,40.8
				c-4.3-7.1-9.3-13.6-15-19.2c-37.9-37.5-79.1-25.1-93.3,16.9c-0.7,2.1-1.4,4.2-2,6.4c-0.9-33.9-0.5-61.8,2.3-71.3
				c0,0,9.2-55.8-35.5-33.3L825,786.9c0,0-19.5,6.7-13.7,39.9l13.2,111c0,0,1.5,9.4-1.4,10.3c-2.4,0.8-5.8,1.4-8.9-7.5
				c0,0-16.1-50.8-22.7-83.3c0,0-2.2-15.8-16.1-11.8l-19.5,6.7c0,0-10.6,3-11.3,17.3l-12,97.1c0,0,0,9.8-2.8,9.7
				c-3.6-0.1-2-4.6-3.2-9.3l-16-184.4V623.3h74.8c6.7-16.3,14.4-37.4,23-59.5c1,21.1,4.8,41.3,11.5,59.5h239.2
				c-3.6,15.5,13.2,25,13.2,25c4.5,6.3,8.7,12.4,12.8,18.5C1012.2,654.1,972.5,783.5,972.5,783.5z M1114.7,326
				c12.4,0.2,21.6,10.7,22.3,29.3c0.7,19-8.7,40.4-22.3,54.7V326z M1183,654c-1.7,1.4-4.1-4.9-4.1-4.9l-34.7-67.2
				c-10.3-21-22.8-21.7-29.6-20.1v-47.5c0.1-0.1,0.3-0.1,0.4-0.2c18.1-9,34.9-22,49.7-37.7c-13.2,23.7-24.4,41.6-30,52.6h25.2
				c15.9,51.4,24.6,116.9,24.6,116.9C1185.2,649.4,1185.5,651.9,1183,654z M1439.9,820.3c8-11.9,16.4-32.7,24.5-56.8v108
				C1426.5,841,1439.9,820.3,1439.9,820.3z M1390.3,221.5c-22.4,49.9-62.2,104.4-62.2,104.4c-2,3-3.4,5-6.6,4.9
				c-2.2-0.1,0.2-6.3,0.2-6.3l19.4-73c1.8-6.4,2.4-11.7,2.2-16.1l0,0C1399.2,181.7,1390.3,221.5,1390.3,221.5
				C1390.3,221.5,1390.3,221.5,1390.3,221.5z"/>
		</g>
	</g>
</g>
</svg>
