<?xml version="1.0" encoding="utf-8"?>
<!-- Generator: Adobe Illustrator 22.1.0, SVG Export Plug-In . SVG Version: 6.00 Build 0)  -->
<svg version="1.1" id="Layer_1" xmlns="http://www.w3.org/2000/svg" xmlns:xlink="http://www.w3.org/1999/xlink" x="0px" y="0px"
	 viewBox="0 0 720 649.2" style="enable-background:new 0 0 720 649.2;" xml:space="preserve">
<style type="text/css">
	.st0{fill:#CECECE;}
</style>
<path class="st0" d="M697,177.1c-37,0-76,15-111,46c-19,16-37,34-54,54c37-81,37-81,88-165c0,0,23-40,23-72c0-18-7-34-28-40H447
	c-17,6-38,22.4-56,73l-97,274c0,0-6,17-12,17h-1c-6-1-14.5-4.1-13-18l43-225c0,0,1.9-12.4,2-15c0.3-12-4-27-26-31l-52-6
	c0,0-24-5-45,27l-138,208c0,0-13,21-17,20c-4-2-4-8,3-25c0,0,102-233,122-299H0v564l93-155c6-10,11-15,15-15c3,0,6.2,2.1,5,10
	l-40,245h304c7-17,15-39,24-62c1,22,5,43,12,62h307v-470C712,178.1,705,177.1,697,177.1z M621,577.1c-9,5-18,7-26,7
	c-24,0-40-21-38-54c2-44,30-95,65-115c10-6,19-9,27-9c22,0,39,19,40,52C691,504.1,659,558.1,621,577.1z"/>
</svg>
